<?xml version="1.0" standalone="no"?>
<!DOCTYPE svg PUBLIC "-//W3C//DTD SVG 20010904//EN"
 "http://www.w3.org/TR/2001/REC-SVG-20010904/DTD/svg10.dtd">
<svg version="1.0" xmlns="http://www.w3.org/2000/svg"
 width="225.000000pt" height="225.000000pt" viewBox="0 0 225.000000 225.000000"
 preserveAspectRatio="xMidYMid meet">
<metadata>
Created by potrace 1.11, written by Peter Selinger 2001-2013
</metadata>
<g transform="translate(0.000000,225.000000) scale(0.100000,-0.100000)"
fill="#000000" stroke="none">
<path d="M763 1738 l-353 -202 0 -411 0 -411 354 -202 c194 -111 357 -202 361
-202 4 0 167 91 361 202 l354 202 0 411 0 411 -354 202 c-194 111 -357 202
-362 202 -5 0 -168 -91 -361 -202z m658 -114 l289 -167 0 -331 0 -331 -287
-165 c-158 -91 -292 -165 -298 -165 -6 0 -140 74 -298 165 l-287 165 0 331 0
331 288 166 c158 92 291 167 296 167 5 0 139 -75 297 -166z"/>
<path d="M740 1305 l-105 -106 185 -181 c102 -100 213 -209 248 -242 l62 -61
240 240 c132 132 240 245 240 251 0 5 -44 54 -99 107 l-98 97 -284 0 -284 0
-105 -105z"/>
</g>
</svg>
